<?xml version="1.0" standalone="no"?>
<!DOCTYPE svg PUBLIC "-//W3C//DTD SVG 20010904//EN"
 "http://www.w3.org/TR/2001/REC-SVG-20010904/DTD/svg10.dtd">
<svg version="1.0" xmlns="http://www.w3.org/2000/svg"
 width="325.000000pt" height="325.000000pt" viewBox="0 0 325.000000 325.000000"
 preserveAspectRatio="xMidYMid meet">
<metadata>
Created by potrace 1.11, written by Peter Selinger 2001-2013
</metadata>
<g transform="translate(0.000000,325.000000) scale(0.100000,-0.100000)"
fill="#000000" stroke="none">
<path d="M1469 3246 c-2 -2 -28 -7 -58 -10 -415 -49 -824 -287 -1080 -626 -71
-95 -134 -207 -125 -222 4 -7 3 -8 -5 -4 -16 10 -43 -55 -30 -71 7 -7 6 -14
-2 -19 -8 -4 -9 -3 -5 4 4 7 3 12 -2 12 -6 0 -13 -7 -16 -16 -8 -22 -8 -26 4
-19 6 3 7 -1 4 -9 -3 -9 -10 -14 -14 -11 -5 3 -11 1 -14 -4 -4 -5 -1 -13 5
-17 8 -5 9 -3 4 6 -5 9 -4 11 4 6 15 -10 3 -29 -15 -22 -15 6 -15 -15 0 -25 5
-4 5 -13 0 -20 -5 -8 -10 -18 -11 -24 -19 -81 -40 -145 -45 -140 -4 4 -4 -2
-1 -14 3 -12 1 -21 -5 -21 -6 0 -8 -8 -6 -17 3 -10 -2 -52 -10 -93 -16 -84
-15 -438 1 -500 6 -19 9 -47 9 -62 -1 -14 3 -24 8 -21 5 4 7 0 4 -8 -3 -8 0
-26 8 -40 15 -27 18 -53 6 -45 -5 3 -9 -1 -9 -8 0 -8 6 -12 14 -9 8 3 13 -2
13 -16 0 -31 0 -33 21 -74 11 -20 16 -37 12 -37 -4 0 -2 -5 5 -12 7 -7 8 -17
2 -29 -11 -20 23 -95 52 -117 10 -7 18 -18 18 -24 0 -7 -7 -3 -15 8 -14 18
-14 17 -4 -8 7 -16 16 -28 21 -28 4 0 7 -3 7 -7 -3 -21 3 -24 18 -12 16 13 17
12 5 -3 -11 -14 -7 -25 24 -75 243 -384 676 -656 1147 -720 70 -10 349 -10
416 0 178 25 358 80 504 153 99 49 255 150 327 211 119 101 283 291 337 391
11 20 30 54 41 75 12 20 18 37 14 37 -4 0 -2 4 4 8 13 9 59 103 57 119 0 7 3
13 9 13 5 0 6 5 3 10 -4 6 -11 7 -17 4 -7 -4 -8 -2 -4 5 4 6 11 9 16 6 5 -3
12 0 16 6 4 7 3 9 -4 5 -6 -3 -13 -2 -17 4 -3 5 1 10 9 10 8 0 18 5 22 12 5 7
3 8 -6 3 -10 -6 -12 -2 -7 16 4 13 7 28 7 32 0 5 6 5 13 1 7 -5 6 0 -3 11 -14
17 -13 18 3 12 9 -3 17 -2 17 2 0 5 -5 11 -10 13 -7 2 -6 21 3 56 7 29 16 50
19 46 4 -3 4 9 2 26 -3 18 -2 30 3 27 10 -6 11 7 18 248 3 105 7 196 10 203 3
7 0 10 -5 7 -5 -3 -9 4 -9 17 1 13 -2 32 -6 42 -7 15 -5 17 6 11 12 -8 12 -6
0 8 -7 9 -14 37 -15 61 0 24 -4 42 -8 40 -4 -3 -6 4 -6 13 1 10 -2 29 -6 42
-6 18 -5 22 5 17 8 -4 7 -2 -2 6 -8 7 -18 23 -21 36 -6 20 -4 22 10 10 15 -12
16 -11 3 4 -7 10 -10 26 -7 35 6 17 5 17 -8 0 -13 -17 -14 -16 -19 3 -3 11 0
23 5 27 7 4 8 1 3 -7 -5 -9 -4 -11 4 -6 15 9 5 26 -16 26 -9 0 -13 3 -10 7 4
3 2 12 -4 20 -6 7 -8 13 -4 13 4 0 1 8 -6 18 -13 15 -12 16 4 3 17 -13 17 -12
-1 35 -14 38 -22 48 -38 46 -16 -2 -16 -1 -4 7 13 9 10 20 -19 73 -231 426
-628 719 -1111 818 -78 16 -151 23 -281 26 -97 2 -178 2 -180 0z m421 -100
c456 -86 869 -382 1081 -776 13 -25 28 -48 32 -51 5 -3 8 -10 8 -15 -1 -5 3
-9 8 -9 5 0 13 -4 18 -9 5 -5 3 -6 -4 -2 -19 11 -16 -5 13 -68 16 -35 30 -54
37 -50 9 5 9 3 0 -6 -9 -10 -9 -20 2 -47 8 -18 12 -33 9 -33 -2 0 2 -12 9 -27
8 -16 12 -34 10 -40 -3 -7 0 -13 6 -13 10 0 8 20 -4 53 -4 10 -3 17 4 17 6 0
12 -9 12 -20 1 -11 2 -26 3 -32 1 -7 -2 -18 -6 -25 -6 -7 -4 -14 3 -19 8 -4 9
-3 5 4 -4 7 -2 12 3 12 15 0 14 -13 -1 -29 -8 -9 -8 -11 -2 -8 14 8 27 -20 14
-28 -4 -3 -11 1 -13 7 -4 10 -6 10 -6 1 -1 -7 8 -22 19 -33 16 -16 17 -20 5
-20 -8 0 -15 -4 -15 -10 0 -5 6 -7 14 -4 13 5 25 -37 25 -86 0 -8 2 -33 5 -55
4 -28 3 -36 -4 -25 -8 13 -10 12 -10 -2 0 -10 4 -18 9 -18 12 0 11 -139 -1
-146 -7 -4 -6 -9 1 -14 8 -4 9 -15 3 -31 -5 -13 -8 -39 -7 -56 1 -18 -2 -33
-7 -33 -6 0 -7 8 -3 18 5 14 4 15 -6 5 -10 -10 -10 -16 -1 -25 15 -15 16 -38
1 -38 -5 0 -8 4 -4 9 3 5 2 12 -2 14 -5 3 -9 -8 -10 -25 0 -22 2 -26 8 -17 9
13 8 1 -5 -58 -1 -7 -5 -15 -9 -19 -3 -4 -4 3 -2 15 2 12 0 19 -5 16 -10 -6
-8 -24 4 -44 7 -11 5 -13 -7 -8 -9 3 -16 3 -16 -1 1 -4 0 -9 -1 -12 -7 -19 -7
-39 1 -34 5 3 7 9 4 14 -3 5 -1 11 4 14 5 4 8 -2 6 -11 -2 -10 -4 -18 -5 -18
-1 0 -3 -8 -5 -18 -2 -11 -7 -22 -11 -25 -4 -4 -4 1 -1 11 4 9 3 17 -1 17 -7
0 -34 -79 -34 -97 0 -4 -6 -15 -14 -24 -11 -12 -11 -18 -1 -29 8 -9 9 -11 0
-6 -12 6 -46 -52 -46 -80 0 -7 -4 -11 -8 -8 -4 2 -11 -6 -14 -18 -8 -27 -79
-138 -143 -223 -72 -96 -251 -266 -353 -334 -206 -138 -445 -230 -670 -258
-109 -14 -365 -8 -469 11 -382 69 -733 287 -966 601 -32 44 -61 82 -64 85 -7
7 -31 49 -58 103 -13 26 -28 45 -33 42 -5 -4 -6 1 -3 9 9 23 -15 59 -34 52
-13 -5 -13 -3 2 9 17 13 17 15 3 21 -9 3 -13 12 -11 19 3 7 0 16 -7 21 -8 5
-10 3 -4 -7 8 -12 6 -12 -8 0 -18 15 -23 26 -7 16 15 -9 12 17 -5 59 -8 20
-12 36 -8 36 4 0 -5 11 -20 25 -15 14 -27 34 -26 43 0 12 3 10 10 -7 5 -13 12
-21 15 -18 3 3 1 14 -5 25 -6 11 -7 23 -3 27 4 5 -1 5 -10 2 -13 -5 -18 2 -23
33 -7 43 -5 57 8 52 5 -1 6 2 2 8 -3 6 -10 8 -14 5 -12 -7 -22 64 -28 208 -5
117 -3 130 13 143 14 10 15 14 4 12 -16 -3 -16 -2 -6 86 8 78 16 107 28 100 6
-4 5 3 -1 15 -10 17 -9 21 3 21 8 0 18 4 21 10 3 5 0 7 -9 4 -11 -4 -14 0 -11
15 3 12 7 31 10 43 2 12 9 26 15 32 8 8 11 7 8 -4 -2 -8 -7 -19 -13 -23 -6 -5
-4 -7 5 -4 15 4 21 24 11 42 -10 18 -10 35 0 29 5 -3 7 -10 4 -15 -4 -5 -1 -9
4 -9 14 0 14 6 -1 33 -10 21 -10 21 7 7 17 -14 18 -14 6 7 -9 19 -9 22 3 17
19 -7 39 49 23 66 -9 9 -8 11 3 8 8 -2 14 3 13 10 -2 6 2 12 7 12 12 0 14 26
3 33 -5 2 -2 2 4 1 7 -2 26 23 42 56 132 266 381 517 652 659 162 85 291 129
474 160 134 23 384 21 515 -3z m1196 -854 c-3 -3 0 -12 6 -21 10 -13 10 -14
-2 -4 -16 15 -23 46 -8 37 5 -3 7 -9 4 -12z m-2916 -102 c0 -5 -5 -10 -11 -10
-5 0 -7 5 -4 10 3 6 8 10 11 10 2 0 4 -4 4 -10z m2944 -87 c4 -9 1 -21 -5 -27
-9 -8 -10 -8 -5 2 4 7 2 19 -4 27 -7 9 -8 15 -2 15 5 0 13 -8 16 -17z m51
-193 c3 -5 1 -10 -4 -10 -6 0 -11 5 -11 10 0 6 2 10 4 10 3 0 8 -4 11 -10z
m-3030 -736 c0 -10 4 -26 10 -34 7 -13 6 -13 -7 -2 -9 7 -15 21 -13 30 1 9 -3
21 -9 25 -7 6 -6 7 4 4 8 -2 15 -12 15 -23z m25 -58 c0 -3 -4 -8 -10 -11 -5
-3 -10 -1 -10 4 0 6 5 11 10 11 6 0 10 -2 10 -4z m2950 -107 c0 -5 -4 -9 -8
-9 -5 0 -9 7 -9 15 0 8 4 12 9 9 4 -3 8 -9 8 -15z m-2955 -9 c-4 -6 -1 -19 6
-28 12 -16 12 -16 -5 0 -16 14 -15 38 0 38 3 0 2 -5 -1 -10z"/>
<path d="M1061 2851 c-23 -23 -50 -72 -54 -98 -1 -10 -5 -23 -9 -28 -8 -13 -2
-440 6 -479 12 -50 37 -90 89 -138 l50 -47 -29 -7 c-88 -21 -193 -154 -219
-279 -28 -134 -19 -216 33 -282 25 -30 29 -42 35 -93 7 -58 -35 -130 -91 -159
-36 -19 -44 -21 -60 -21 -30 0 -36 -138 -8 -182 7 -13 14 -42 15 -65 1 -58 12
-81 62 -135 67 -71 73 -72 259 -73 99 -1 179 -6 201 -14 54 -18 82 -52 83
-103 1 -49 -22 -81 -91 -130 -84 -57 -80 -58 307 -58 343 0 350 0 351 20 1 11
2 23 3 28 1 4 6 27 10 52 5 25 10 54 13 65 2 11 6 29 7 40 4 23 25 139 32 175
3 14 6 34 8 45 2 11 12 52 24 90 11 39 23 85 27 104 4 19 15 49 25 66 25 45
67 164 76 216 9 56 10 222 1 274 -6 40 -6 40 47 74 62 39 106 75 106 86 0 5
-8 1 -18 -8 -10 -10 -47 -29 -82 -43 -48 -19 -65 -22 -71 -13 -5 8 1 17 14 24
13 6 43 31 67 54 l45 43 -40 -18 c-22 -10 -53 -27 -68 -37 -22 -15 -31 -17
-40 -8 -9 10 -7 16 8 26 11 8 25 18 30 22 6 5 26 20 45 33 48 33 109 92 88 84
-10 -3 -18 -10 -18 -14 0 -5 -9 -12 -20 -15 -11 -3 -26 -12 -33 -18 -12 -12
-30 -23 -90 -56 -26 -15 -29 -15 -42 3 -21 28 -20 33 28 63 87 57 135 123 142
196 2 23 4 42 5 42 1 0 3 80 4 177 3 206 -11 272 -68 333 -42 44 -72 45 -117
3 -35 -34 -149 -200 -149 -218 0 -5 -4 -10 -9 -10 -5 0 -13 -10 -17 -22 -4
-13 -10 -25 -14 -28 -4 -3 -21 -32 -38 -65 -16 -33 -42 -82 -56 -110 -14 -27
-26 -58 -26 -67 0 -21 -31 -39 -61 -35 -19 3 -58 42 -59 59 0 8 -100 171 -109
178 -4 3 -17 18 -29 34 -12 16 -22 24 -22 18 0 -6 4 -14 10 -17 19 -12 99
-203 100 -238 0 -19 -22 8 -41 49 -21 47 -84 124 -101 124 -7 0 -7 -4 -1 -12
23 -30 84 -150 81 -160 -2 -6 -19 9 -38 33 -19 24 -38 46 -42 47 -5 2 -8 8 -8
13 0 12 -13 28 -74 93 -38 40 -42 43 -21 13 45 -61 124 -192 119 -196 -3 -3
-31 -6 -64 -7 -50 -2 -60 0 -60 14 -3 100 -9 137 -29 186 -6 16 -9 36 -7 43 3
8 2 12 -3 9 -5 -3 -23 29 -40 72 -53 127 -164 340 -194 372 -33 35 -50 37 -76
11z"/>
<path d="M110 2005 c0 -8 2 -15 4 -15 2 0 6 7 10 15 3 8 1 15 -4 15 -6 0 -10
-7 -10 -15z"/>
<path d="M3154 1810 c0 -16 3 -27 6 -25 8 5 6 42 -1 50 -3 2 -5 -8 -5 -25z"/>
<path d="M3161 1734 c0 -11 3 -14 6 -6 3 7 2 16 -1 19 -3 4 -6 -2 -5 -13z"/>
<path d="M3171 1604 c0 -11 3 -14 6 -6 3 7 2 16 -1 19 -3 4 -6 -2 -5 -13z"/>
<path d="M3160 1566 c0 -8 4 -17 9 -20 5 -4 7 3 4 14 -6 23 -13 26 -13 6z"/>
<path d="M3155 1501 c-3 -5 -2 -12 3 -15 5 -3 9 1 9 9 0 17 -3 19 -12 6z"/>
<path d="M95 1310 c3 -5 8 -10 11 -10 2 0 4 5 4 10 0 6 -5 10 -11 10 -5 0 -7
-4 -4 -10z"/>
<path d="M3110 2216 c0 -2 7 -9 15 -16 13 -11 14 -10 9 4 -5 14 -24 23 -24 12z"/>
<path d="M3170 1231 c0 -6 4 -13 10 -16 6 -3 7 1 4 9 -7 18 -14 21 -14 7z"/>
<path d="M96 1087 c3 -10 9 -15 12 -12 3 3 0 11 -7 18 -10 9 -11 8 -5 -6z"/>
<path d="M110 1051 c0 -6 5 -13 10 -16 6 -4 7 -11 4 -17 -4 -7 -2 -8 5 -4 8 6
9 12 2 20 -6 7 -8 16 -4 19 3 4 1 7 -5 7 -7 0 -12 -4 -12 -9z"/>
</g>
</svg>
